<?xml version="1.0" standalone="no"?><!DOCTYPE svg PUBLIC "-//W3C//DTD SVG 1.1//EN" "http://www.w3.org/Graphics/SVG/1.1/DTD/svg11.dtd"><svg t="1711013373241" class="icon" viewBox="0 0 1024 1024" version="1.1" xmlns="http://www.w3.org/2000/svg" p-id="2713" data-spm-anchor-id="a313x.search_index.0.i11.62193a81psNAiU" xmlns:xlink="http://www.w3.org/1999/xlink" width="200" height="200"><path d="M512 512m-414 0a414 414 0 1 0 828 0 414 414 0 1 0-828 0Z" fill="#F0C48A" p-id="2714"></path><path d="M415.6 688.6h192.8v152.4h-192.8z" fill="#FD919E" p-id="2715"></path><path d="M536.2 692h72v137.2h-72zM331.4 841h361V928H331.4z" fill="#E8677D" p-id="2716" data-spm-anchor-id="a313x.search_index.0.i10.62193a81psNAiU" class="selected"></path><path d="M955 688.6h-886c-31.6 0-57.2-25.6-57.2-57.2V153.2C11.8 121.6 37.4 96 69 96h886c31.6 0 57.2 25.6 57.2 57.2v478.2c0 31.6-25.6 57.2-57.2 57.2z" fill="#D3E6F8" p-id="2717"></path><path d="M944.4 688.6h-10.2V102h10.2c34 0 61.8 27.6 61.8 61.8v463.2c-0.2 34-27.8 61.6-61.8 61.6z" fill="#A4CFF2" p-id="2718"></path><path d="M78.4 171.6h867v441.2H78.4z" fill="#FFFFFF" p-id="2719"></path><path d="M868 174.6h72v438.4h-72z" fill="#D3E6F8" p-id="2720"></path><path d="M955 700.4h-886c-38 0-69-31-69-69V153.2c0-38 31-69 69-69h886c38 0 69 31 69 69v478.2c0 38-31 69-69 69zM69 107.6C44 107.6 23.4 128 23.4 153.2v478.2c0 25 20.4 45.6 45.6 45.6h886c25 0 45.6-20.4 45.6-45.6V153.2c0-25-20.4-45.6-45.6-45.6h-886z" fill="#4C4372" p-id="2721"></path><path d="M945.6 624.6H78.4c-6.4 0-11.8-5.2-11.8-11.8V171.6c0-6.4 5.2-11.8 11.8-11.8h867c6.4 0 11.8 5.2 11.8 11.8v441.2c0 6.6-5.2 11.8-11.6 11.8zM90.2 601.2h843.6V183.4H90.2v417.8zM608.4 852.6h-192.8c-6.4 0-11.8-5.2-11.8-11.8v-152.4c0-6.4 5.2-11.8 11.8-11.8h192.8c6.4 0 11.8 5.2 11.8 11.8v152.4c-0.2 6.6-5.4 11.8-11.8 11.8z m-181-23.4h169.2v-128.8h-169.2v128.8z" fill="#4C4372" p-id="2722"></path><path d="M692.6 939.8H331.4c-6.4 0-11.8-5.2-11.8-11.8v-87c0-6.4 5.2-11.8 11.8-11.8h361c6.4 0 11.8 5.2 11.8 11.8V928c0 6.6-5.2 11.8-11.6 11.8z m-349.4-23.4h337.6v-63.6H343.2v63.6zM460 296.4c0.2-19 5-36 14-49.2 8.6-13.2 22-22.8 38.2-22.8 15.8 0 29.4 9.6 38 22.8 8.8 13.2 13.8 30.2 13.8 49.2 0 18.6-5 36-13.8 49.2-8.6 13-22.2 22.8-38 22.8-16.2 0-29.6-9.8-38.2-22.8-9-13.4-13.8-30.6-14-49.2z m81.2 0c0-14.8-4.2-27.8-9.8-36.6-6-8.6-12.8-12.8-19.2-12.6-6.4-0.2-13.4 4-19.6 12.6-5.8 8.8-9.8 21.8-9.8 36.6 0 14.6 4.2 27.8 9.8 36.4 6.2 8.8 13.2 12.8 19.6 12.8 6.4 0 13.2-4 19.2-12.8 5.6-8.8 9.8-22 9.8-36.4zM536.2 414.8V536c0 6.4-5.4 11.4-11.6 11.4-6.4 0-11.4-5-11.4-11.4v-101l-8.2 4.8c-1.8 1.2-4 1.6-5.8 1.6-4 0-7.6-2-9.6-5.8-3.4-5.2-1.6-12.4 3.6-15.4l25.2-15c0.2-0.2 0.6-0.2 0.8-0.4 0.4 0 0.6-0.4 1-0.6 0.4 0 0.8-0.2 1.2-0.2 0.2-0.2 0.6-0.2 0.8-0.2 0.4-0.2 1-0.2 1.4-0.2h2.2c0.2 0.2 0.6 0.2 0.8 0.2 0.6 0 0.8 0.2 1.2 0.4 0.2 0 0.6 0 0.8 0.2 0.6 0.4 0.8 0.6 1.2 0.6 0.2 0.2 0.4 0.4 0.8 0.6 0.2 0.2 0.6 0.4 0.8 0.6 0.4 0.2 0.6 0.6 0.8 0.8 0.2 0.2 0.4 0.4 0.6 0.8l0.8 0.8 0.2 0.4c0 0.2 0.2 0.4 0.2 0.6 0.2 0.4 0.4 0.6 0.4 1 0.2 0.4 0.2 0.8 0.4 1 0 0.4 0.2 0.8 0.2 1 0 0.6 0 1 0.4 1.4 0.8 0.4 0.8 0.6 0.8 0.8zM339.8 235.6v121.2c0 6.4-5.4 11.4-11.6 11.4-6.4 0-11.4-5-11.4-11.4v-101l-8.2 4.8c-1.8 1.2-4 1.6-5.8 1.6-4 0-7.6-2-9.6-5.8-3.4-5.2-1.6-12.4 3.6-15.4L322 226c0.2-0.2 0.6-0.2 0.8-0.4 0.4 0 0.6-0.4 1-0.6 0.4 0 0.8-0.2 1.2-0.2 0.2-0.2 0.6-0.2 0.8-0.2 0.4-0.2 1-0.2 1.4-0.2h2.2c0.2 0.2 0.6 0.2 0.8 0.2 0.6 0 0.8 0.2 1.2 0.4 0.2 0 0.6 0 0.8 0.2 0.6 0.4 0.8 0.6 1.2 0.6 0.2 0.2 0.4 0.4 0.8 0.6 0.2 0.2 0.6 0.4 0.8 0.6 0.4 0.2 0.6 0.6 0.8 0.8 0.2 0.2 0.4 0.4 0.6 0.8l0.8 0.8 0.2 0.4c0 0.2 0.2 0.4 0.2 0.6 0.2 0.4 0.4 0.6 0.4 1 0.2 0.4 0.2 0.8 0.4 1 0 0.4 0.2 0.8 0.2 1 0 0.6 0 1 0.4 1.4 0.8 0.4 0.8 0.6 0.8 0.8zM732.4 235.6v121.2c0 6.4-5.4 11.4-11.6 11.4-6.4 0-11.2-5-11.2-11.4v-101l-8.2 4.8c-1.8 1.2-4 1.6-5.8 1.6-4 0-7.6-2-9.6-5.8-3.4-5.2-1.6-12.4 3.6-15.4l25.2-15c0.2-0.2 0.6-0.2 0.8-0.4 0.4 0 0.6-0.4 1-0.6 0.4 0 0.8-0.2 1.2-0.2 0.2-0.2 0.6-0.2 0.8-0.2 0.4-0.2 1-0.2 1.4-0.2h2.2c0.2 0.2 0.6 0.2 0.8 0.2 0.6 0 0.8 0.2 1.2 0.4 0.2 0 0.6 0 0.8 0.2 0.6 0.4 0.8 0.6 1.2 0.6 0.2 0.2 0.4 0.4 0.8 0.6 0.2 0.2 0.6 0.4 0.8 0.6 0.4 0.2 0.6 0.6 0.8 0.8 0.2 0.2 0.4 0.4 0.6 0.8l0.8 0.8 0.2 0.4c0 0.2 0.2 0.4 0.2 0.6 0.2 0.4 0.4 0.6 0.4 1 0.2 0.4 0.2 0.8 0.4 1 0 0.4 0.2 0.8 0.2 1 0 0.6 0 1 0.4 1.4 0.6 0.4 0.6 0.6 0.6 0.8zM263.8 475.4c0.2-19 5-36 14-49.2 8.6-13.2 22-22.8 38.2-22.8 15.8 0 29.4 9.6 38 22.8 8.8 13.2 13.8 30.2 13.8 49.2 0 18.6-5 36-13.8 49.2-8.6 13-22.2 22.8-38 22.8-16.2 0-29.6-9.8-38.2-22.8-9-13.2-13.8-30.4-14-49.2z m81.2 0c0-14.8-4.2-27.8-9.8-36.6-6-8.6-12.8-12.8-19.2-12.6-6.4-0.2-13.4 4-19.6 12.6-5.8 8.8-9.8 21.8-9.8 36.6 0 14.6 4.2 27.8 9.8 36.4 6.2 8.8 13.2 12.8 19.6 12.8 6.4 0 13.2-4 19.2-12.8 5.6-8.6 9.8-21.8 9.8-36.4zM656.2 475.4c0.2-19 5-36 14-49.2 8.6-13.2 22-22.8 38.2-22.8 15.8 0 29.4 9.6 38 22.8 8.8 13.2 13.8 30.2 13.8 49.2 0 18.6-5 36-13.8 49.2-8.6 13-22.2 22.8-38 22.8-16.2 0-29.6-9.8-38.2-22.8-9-13.2-13.8-30.4-14-49.2z m81.2 0c0-14.8-4.2-27.8-9.8-36.6-6-8.6-12.8-12.8-19.2-12.6-6.4-0.2-13.4 4-19.6 12.6-5.8 8.8-9.8 21.8-9.8 36.6 0 14.6 4.2 27.8 9.8 36.4 6.2 8.8 13.2 12.8 19.6 12.8s13.2-4 19.2-12.8c5.8-8.6 9.8-21.8 9.8-36.4z" fill="#4C4372" p-id="2723" data-spm-anchor-id="a313x.search_index.0.i12.62193a81psNAiU" class="selected"></path></svg>