<?xml version="1.0" standalone="no"?><!DOCTYPE svg PUBLIC "-//W3C//DTD SVG 1.1//EN" "http://www.w3.org/Graphics/SVG/1.1/DTD/svg11.dtd"><svg t="1710253681591" class="icon" viewBox="0 0 1024 1024" version="1.1" xmlns="http://www.w3.org/2000/svg" p-id="3759" xmlns:xlink="http://www.w3.org/1999/xlink" width="200" height="200"><path d="M619.3 840.7c-5 0-9-4-9-9V197.5c0-5 4-9 9-9H934c5 0 9 4 9 9v634.2c0 5-4 9-9 9H619.3z" fill="#F7D7FF" p-id="3760"></path><path d="M934 197.5v634.2H619.3V197.5H934m0-18H619.3c-9.9 0-18 8.1-18 18v634.2c0 9.9 8.1 18 18 18H934c9.9 0 18-8.1 18-18V197.5c0-10-8.1-18-18-18z" fill="#330867" p-id="3761"></path><path d="M635.9 216h281.4v597.1H635.9z" fill="#FFFFFF" p-id="3762"></path><path d="M914.3 219v591.1H638.9V219h275.4m6-6H632.9v603.1h287.4V213z" fill="#330867" p-id="3763"></path><path d="M776.6 763.2c-21.2 0-38.5-17.3-38.5-38.5s17.3-38.5 38.5-38.5 38.5 17.3 38.5 38.5-17.3 38.5-38.5 38.5z" fill="#FC6B79" p-id="3764"></path><path d="M776.6 695.2c16.3 0 29.5 13.2 29.5 29.5s-13.2 29.5-29.5 29.5-29.5-13.2-29.5-29.5 13.2-29.5 29.5-29.5m0-18c-26.2 0-47.5 21.3-47.5 47.5s21.3 47.5 47.5 47.5 47.5-21.3 47.5-47.5-21.3-47.5-47.5-47.5z" fill="#330867" p-id="3765"></path><path d="M701.8 390.7c-9.3 0-16.9-7.6-16.9-16.9s7.6-16.9 16.9-16.9c9.3 0 16.9 7.6 16.9 16.9s-7.6 16.9-16.9 16.9z" fill="#FFE08A" p-id="3766"></path><path d="M701.8 360c7.7 0 13.9 6.2 13.9 13.9s-6.2 13.9-13.9 13.9-13.9-6.2-13.9-13.9 6.2-13.9 13.9-13.9m0-6c-11 0-19.9 8.9-19.9 19.9s8.9 19.9 19.9 19.9c11 0 19.9-8.9 19.9-19.9s-8.9-19.9-19.9-19.9z" fill="#330867" p-id="3767"></path><path d="M776.6 390.7c-9.3 0-16.9-7.6-16.9-16.9s7.6-16.9 16.9-16.9c9.3 0 16.9 7.6 16.9 16.9s-7.6 16.9-16.9 16.9z" fill="#FFE08A" p-id="3768"></path><path d="M776.6 360c7.7 0 13.9 6.2 13.9 13.9s-6.2 13.9-13.9 13.9-13.9-6.2-13.9-13.9S769 360 776.6 360m0-6c-11 0-19.9 8.9-19.9 19.9s8.9 19.9 19.9 19.9c11 0 19.9-8.9 19.9-19.9s-8.9-19.9-19.9-19.9z" fill="#330867" p-id="3769"></path><path d="M851.4 390.7c-9.3 0-16.9-7.6-16.9-16.9s7.6-16.9 16.9-16.9c9.3 0 16.9 7.6 16.9 16.9s-7.6 16.9-16.9 16.9z" fill="#FFE08A" p-id="3770"></path><path d="M851.4 360c7.7 0 13.9 6.2 13.9 13.9s-6.2 13.9-13.9 13.9-13.9-6.2-13.9-13.9 6.3-13.9 13.9-13.9m0-6c-11 0-19.9 8.9-19.9 19.9s8.9 19.9 19.9 19.9 19.9-8.9 19.9-19.9-8.9-19.9-19.9-19.9z" fill="#330867" p-id="3771"></path><path d="M680.5 314.7c-11.6 0-21-9.4-21-21v-3.5c0-11.6 9.4-21 21-21h192.1c11.6 0 21 9.4 21 21v3.5c0 11.6-9.4 21-21 21H680.5z" fill="#FFE08A" p-id="3772"></path><path d="M872.7 278.1c6.6 0 12 5.4 12 12v3.5c0 6.6-5.4 12-12 12H680.5c-6.6 0-12-5.4-12-12v-3.5c0-6.6 5.4-12 12-12h192.2m0-18H680.5c-16.5 0-30 13.5-30 30v3.5c0 16.5 13.5 30 30 30h192.1c16.5 0 30-13.5 30-30v-3.5c0.1-16.5-13.4-30-29.9-30z" fill="#330867" p-id="3773"></path><path d="M874.7 582.7H678.5c-5 0-9-4-9-9s4-9 9-9h196.2c5 0 9 4 9 9s-4 9-9 9z" fill="#330867" p-id="3774"></path><path d="M874.7 483.6H678.5c-5 0-9-4-9-9s4-9 9-9h196.2c5 0 9 4 9 9s-4 9-9 9z" fill="#330867" p-id="3775"></path><path d="M86.6 708.7c-5 0-9-4-9-9V227c0-5 4-9 9-9h620.2c5 0 9 4 9 9v472.7c0 5-4 9-9 9H86.6z" fill="#66C1FF" p-id="3776"></path><path d="M706.8 227v472.7H86.6V227h620.2m0-18H86.6c-9.9 0-18 8.1-18 18v472.7c0 9.9 8.1 18 18 18h620.2c9.9 0 18-8.1 18-18V227c0-9.9-8-18-18-18z" fill="#330867" p-id="3777"></path><path d="M226.2 540.1c-0.7 0-1.3-0.2-1.9-0.7L183 505.9c-0.7-0.6-1.1-1.4-1.1-2.3s0.4-1.8 1.1-2.3l41.3-33.5c1.3-1 3.2-0.8 4.2 0.4 1 1.3 0.8 3.2-0.4 4.2l-38.4 31.1 38.4 31.1c1.3 1 1.5 2.9 0.4 4.2-0.6 0.9-1.5 1.3-2.3 1.3zM239.2 535.7c-0.2 0-0.5 0-0.7-0.1-1.6-0.4-2.6-2-2.2-3.6l14.6-58.2c0.4-1.6 2-2.6 3.6-2.2 1.6 0.4 2.6 2 2.2 3.6l-14.6 58.2c-0.4 1.4-1.6 2.3-2.9 2.3zM355.3 540.1c-0.9 0-1.7-0.4-2.3-1.1-1-1.3-0.8-3.2 0.4-4.2l38.4-31.1-38.4-31.1c-1.3-1-1.5-2.9-0.4-4.2 1-1.3 2.9-1.5 4.2-0.4l41.3 33.5c0.7 0.6 1.1 1.4 1.1 2.3s-0.4 1.8-1.1 2.3l-41.3 33.5c-0.5 0.2-1.2 0.5-1.9 0.5z" fill="#FFFFFF" p-id="3778"></path><path d="M270.9 503.6a6.5 6.7 0 1 0 13 0 6.5 6.7 0 1 0-13 0Z" fill="#FFFFFF" p-id="3779"></path><path d="M305.4 503.6a6.5 6.7 0 1 0 13 0 6.5 6.7 0 1 0-13 0Z" fill="#FFFFFF" p-id="3780"></path><path d="M340 503.6a6.5 6.7 0 1 0 13 0 6.5 6.7 0 1 0-13 0Z" fill="#FFFFFF" p-id="3781"></path><path d="M226.2 336.8c-0.7 0-1.3-0.2-1.9-0.7L183 302.6c-0.7-0.6-1.1-1.4-1.1-2.3s0.4-1.8 1.1-2.3l41.3-33.5c1.3-1 3.2-0.8 4.2 0.4 1 1.3 0.8 3.2-0.4 4.2l-38.4 31.1 38.4 31.1c1.3 1 1.5 2.9 0.4 4.2-0.6 0.9-1.5 1.3-2.3 1.3zM314 336.8c-0.9 0-1.7-0.4-2.3-1.1-1-1.3-0.8-3.2 0.4-4.2l38.4-31.1-38.4-31.1c-1.3-1-1.5-2.9-0.4-4.2 1-1.3 2.9-1.5 4.2-0.4l41.3 33.5c0.7 0.6 1.1 1.4 1.1 2.3s-0.4 1.8-1.1 2.3l-41.3 33.5c-0.5 0.3-1.2 0.5-1.9 0.5z" fill="#FFFFFF" p-id="3782"></path><path d="M229.6 300.3a6.5 6.7 0 1 0 13 0 6.5 6.7 0 1 0-13 0Z" fill="#FFFFFF" p-id="3783"></path><path d="M264.1 300.3a6.5 6.7 0 1 0 13 0 6.5 6.7 0 1 0-13 0Z" fill="#FFFFFF" p-id="3784"></path><path d="M298.7 300.3a6.5 6.7 0 1 0 13 0 6.5 6.7 0 1 0-13 0Z" fill="#FFFFFF" p-id="3785"></path><path d="M346.4 799.3c-5 0-9-4-9-9v-76.7c0-5 4-9 9-9H447c5 0 9 4 9 9v76.7c0 5-4 9-9 9H346.4z" fill="#F0BEFC" p-id="3786"></path><path d="M447 713.6v76.7H346.4v-76.7H447m0-18H346.4c-9.9 0-18 8.1-18 18v76.7c0 9.9 8.1 18 18 18H447c9.9 0 18-8.1 18-18v-76.7c0-9.9-8-18-18-18z" fill="#330867" p-id="3787"></path><path d="M86.6 708.7c-5 0-9-4-9-9v-72.1c0-5 4-9 9-9h620.2c5 0 9 4 9 9v72.1c0 5-4 9-9 9H86.6z" fill="#FFFFFF" p-id="3788"></path><path d="M706.8 627.6v72.1H86.6v-72.1h620.2m0-18H86.6c-9.9 0-18 8.1-18 18v72.1c0 9.9 8.1 18 18 18h620.2c9.9 0 18-8.1 18-18v-72.1c0-9.9-8-18-18-18z" fill="#330867" p-id="3789"></path><path d="M706.8 699.7H86.6v-39.5c170.9 27.1 377.7 34 620.2 20.9v18.6z" fill="#F7D7FF" p-id="3790"></path><path d="M190.2 840.6c-5 0-9-4-9-9v-41.3c0-5 4-9 9-9h413.1c5 0 9 4 9 9v41.3c0 5-4 9-9 9H190.2z" fill="#F0BEFC" p-id="3791"></path><path d="M603.3 790.3v41.3H190.2v-41.3h413.1m0-18H190.2c-9.9 0-18 8.1-18 18v41.3c0 9.9 8.1 18 18 18h413.1c9.9 0 18-8.1 18-18v-41.3c0-10-8.1-18-18-18z" fill="#330867" p-id="3792"></path><path d="M361.9 376.9H239.2c-1.7 0-3-1.3-3-3s1.3-3 3-3h122.7c1.7 0 3 1.3 3 3s-1.4 3-3 3z" fill="#FFFFFF" p-id="3793"></path><path d="M632 409.5H239.2c-1.7 0-3-1.3-3-3s1.3-3 3-3H632c1.7 0 3 1.3 3 3s-1.3 3-3 3z" fill="#FFFFFF" p-id="3794"></path><path d="M469.9 442.1H239.2c-1.7 0-3-1.3-3-3s1.3-3 3-3h230.7c1.7 0 3 1.3 3 3s-1.3 3-3 3z" fill="#FFFFFF" p-id="3795"></path></svg>