<?xml version="1.0" standalone="no"?><!DOCTYPE svg PUBLIC "-//W3C//DTD SVG 1.1//EN" "http://www.w3.org/Graphics/SVG/1.1/DTD/svg11.dtd"><svg t="1710253788947" class="icon" viewBox="0 0 1024 1024" version="1.1" xmlns="http://www.w3.org/2000/svg" p-id="7588" xmlns:xlink="http://www.w3.org/1999/xlink" width="200" height="200"><path d="M756.16 257.84H267.84c-5.52 0-10 4.48-10 10v488.32c0 5.52 4.48 10 10 10h488.32c5.52 0 10-4.48 10-10V267.84c0-5.52-4.48-10-10-10z m-10 488.32H277.84V277.84h468.32v468.32z" fill="#23130D" p-id="7589"></path><path d="M672.1 341.88h-320.2c-5.54 0-10 4.48-10 10v320.22c0 5.54 4.46 10 10 10h320.2c5.54 0 10-4.46 10-10V351.88c0-5.52-4.46-10-10-10z m-10 320.22h-300.2V361.88h300.2v300.22zM396.14 310.92c0 5.52-4.48 10-10 10h-35c-5.54 0-10-4.48-10-10s4.46-10 10-10h35c5.52 0 10 4.48 10 10zM467.82 310.92c0 5.52-4.48 10-10 10h-35c-5.54 0-10-4.48-10-10s4.46-10 10-10h35c5.52 0 10 4.48 10 10zM539.5 310.92c0 5.52-4.48 10-10 10h-35c-5.54 0-10-4.48-10-10s4.46-10 10-10h35c5.52 0 10 4.48 10 10zM611.18 310.92c0 5.52-4.48 10-10 10h-35c-5.54 0-10-4.48-10-10s4.46-10 10-10h35c5.52 0 10 4.48 10 10zM682.86 310.92c0 5.52-4.46 10-10 10h-35c-5.54 0-10-4.48-10-10s4.46-10 10-10h35c5.54 0 10 4.48 10 10zM396.14 713.08c0 5.52-4.48 10-10 10h-35c-5.54 0-10-4.48-10-10s4.46-10 10-10h35c5.52 0 10 4.48 10 10zM467.82 713.08c0 5.52-4.48 10-10 10h-35c-5.54 0-10-4.48-10-10s4.46-10 10-10h35c5.52 0 10 4.48 10 10zM539.5 713.08c0 5.52-4.48 10-10 10h-35c-5.54 0-10-4.48-10-10s4.46-10 10-10h35c5.52 0 10 4.48 10 10zM611.18 713.08c0 5.52-4.48 10-10 10h-35c-5.54 0-10-4.48-10-10s4.46-10 10-10h35c5.52 0 10 4.48 10 10zM682.86 713.08c0 5.52-4.46 10-10 10h-35c-5.54 0-10-4.48-10-10s4.46-10 10-10h35c5.54 0 10 4.48 10 10zM320.92 637.86v35c0 5.52-4.48 10-10 10s-10-4.48-10-10v-35c0-5.54 4.48-10 10-10s10 4.46 10 10zM320.92 566.16v35.02c0 5.52-4.48 10-10 10s-10-4.48-10-10v-35.02c0-5.52 4.48-10 10-10s10 4.48 10 10zM320.92 494.5v35c0 5.52-4.48 10-10 10s-10-4.48-10-10v-35c0-5.54 4.48-10 10-10s10 4.46 10 10zM320.92 422.82v35c0 5.52-4.48 10-10 10s-10-4.48-10-10v-35c0-5.52 4.48-10 10-10s10 4.48 10 10zM320.92 351.14v35c0 5.52-4.48 10-10 10s-10-4.48-10-10v-35c0-5.54 4.48-10 10-10s10 4.46 10 10zM723.08 637.86v35c0 5.52-4.48 10-10 10s-10-4.48-10-10v-35c0-5.54 4.48-10 10-10s10 4.46 10 10zM723.08 566.16v35.02c0 5.52-4.48 10-10 10s-10-4.48-10-10v-35.02c0-5.52 4.48-10 10-10s10 4.48 10 10zM723.08 494.5v35c0 5.52-4.48 10-10 10s-10-4.48-10-10v-35c0-5.54 4.48-10 10-10s10 4.46 10 10zM723.08 422.82v35c0 5.52-4.48 10-10 10s-10-4.48-10-10v-35c0-5.52 4.48-10 10-10s10 4.48 10 10zM723.08 351.14v35c0 5.52-4.48 10-10 10s-10-4.48-10-10v-35c0-5.54 4.48-10 10-10s10 4.46 10 10z" fill="#23130D" p-id="7590"></path><path d="M876.32 428.08c5.52 0 10-4.48 10-10v-14.4h84.02c5.52 0 10-4.48 10-10s-4.48-10-10-10h-84.02v-14.38c0-5.52-4.48-10-10-10h-38.78v-49.54h38.78c5.52 0 10-4.48 10-10v-14.38h84.02c5.52 0 10-4.48 10-10s-4.48-10-10-10h-84.02v-14.38c0-5.54-4.48-10-10-10h-38.78V196.46c0-5.52-4.46-10-10-10H783V147.68c0-5.52-4.48-10-10-10h-14.38V53.66c0-5.52-4.48-10-10-10s-10 4.48-10 10v84.02h-14.38c-5.52 0-10 4.48-10 10v38.78h-49.54V147.68c0-5.52-4.48-10-10-10h-14.38V53.66c0-5.52-4.48-10-10-10-5.54 0-10 4.48-10 10v84.02h-14.4c-5.52 0-10 4.48-10 10v38.78h-49.54V147.68c0-5.52-4.48-10-10-10H522V53.66c0-5.52-4.48-10-10-10s-10 4.48-10 10v84.02h-14.38c-5.52 0-10 4.48-10 10v38.78h-49.54V147.68c0-5.52-4.48-10-10-10h-14.4V53.66c0-5.52-4.48-10-10-10s-10 4.48-10 10v84.02h-14.38c-5.52 0-10 4.48-10 10v38.78h-49.54V147.68c0-5.52-4.48-10-10-10h-14.38V53.66c0-5.52-4.48-10-10-10s-10 4.48-10 10v84.02h-14.38c-5.52 0-10 4.48-10 10v38.78H196.46c-5.52 0-10 4.48-10 10v44.54H147.68c-5.52 0-10 4.46-10 10v14.38H53.66c-5.52 0-10 4.48-10 10s4.48 10 10 10h84.02v14.38c0 5.52 4.48 10 10 10h38.78v49.54H147.68c-5.52 0-10 4.48-10 10v14.38H53.66c-5.52 0-10 4.48-10 10s4.48 10 10 10h84.02v14.4c0 5.52 4.48 10 10 10h38.78v49.54H147.68c-5.52 0-10 4.48-10 10V502H53.66c-5.52 0-10 4.48-10 10s4.48 10 10 10h84.02v14.38c0 5.52 4.48 10 10 10h38.78v49.54H147.68c-5.52 0-10 4.48-10 10v14.4H53.66c-5.52 0-10 4.46-10 10 0 5.52 4.48 10 10 10h84.02v14.38c0 5.52 4.48 10 10 10h38.78v49.54H147.68c-5.52 0-10 4.48-10 10v14.38H53.66c-5.52 0-10 4.48-10 10s4.48 10 10 10h84.02v14.38c0 5.52 4.48 10 10 10h38.78v44.54c0 5.52 4.48 10 10 10h44.54v38.78c0 5.52 4.48 10 10 10h14.38v84.02c0 5.52 4.48 10 10 10s10-4.48 10-10v-84.02h14.38c5.52 0 10-4.48 10-10v-38.78h49.54v38.78c0 5.52 4.48 10 10 10h14.38v84.02c0 5.52 4.48 10 10 10s10-4.48 10-10v-84.02h14.4c5.52 0 10-4.48 10-10v-38.78h49.54v38.78c0 5.52 4.48 10 10 10H502v84.02c0 5.52 4.48 10 10 10s10-4.48 10-10v-84.02h14.38c5.52 0 10-4.48 10-10v-38.78h49.54v38.78c0 5.52 4.48 10 10 10h14.4v84.02c0 5.52 4.46 10 10 10 5.52 0 10-4.48 10-10v-84.02h14.38c5.52 0 10-4.48 10-10v-38.78h49.54v38.78c0 5.52 4.48 10 10 10h14.38v84.02c0 5.52 4.48 10 10 10s10-4.48 10-10v-84.02h14.38c5.52 0 10-4.48 10-10v-38.78h44.54c5.54 0 10-4.48 10-10V783h38.78c5.52 0 10-4.48 10-10v-14.38h84.02c5.52 0 10-4.48 10-10s-4.48-10-10-10h-84.02v-14.38c0-5.52-4.48-10-10-10h-38.78v-49.54h38.78c5.52 0 10-4.48 10-10v-14.38h84.02c5.52 0 10-4.48 10-10 0-5.54-4.48-10-10-10h-84.02v-14.4c0-5.52-4.48-10-10-10h-38.78v-49.54h38.78c5.52 0 10-4.48 10-10V522h84.02c5.52 0 10-4.48 10-10s-4.48-10-10-10h-84.02v-14.38c0-5.52-4.48-10-10-10h-38.78v-49.54h38.78z m-38.78-167.08h28.78v28.76h-28.78V261z m0 118.3h28.78v28.78h-28.78v-28.78zM186.46 763H157.68v-28.76h28.78v28.76z m0-118.3H157.68v-28.78h28.78v28.78z m0-118.32H157.68v-28.76h28.78v28.76z m0-118.3H157.68v-28.78h28.78v28.78z m0-118.32H157.68V261h28.78v28.76z m547.78-132.08H763v28.78h-28.76V157.68z m-118.32 0h28.78v28.78h-28.78V157.68z m-118.3 0H526.38v28.78h-28.76V157.68z m-118.32 0H408.08v28.78h-28.78V157.68z m-118.3 0H289.76v28.78H261V157.68z m28.76 708.64H261v-28.78h28.76v28.78z m118.32 0h-28.78v-28.78h28.78v28.78z m118.3 0h-28.76v-28.78h28.76v28.78z m118.32 0h-28.78v-28.78h28.78v28.78z m118.3 0h-28.76v-28.78h28.76v28.78z m54.54-142.1V817.54H206.46V206.46h611.08v517.76z m48.78 10.02v28.76h-28.78v-28.76h28.78z m0-118.32v28.78h-28.78v-28.78h28.78z m0-118.3v28.76h-28.78v-28.76h28.78z" fill="#23130D" p-id="7591"></path><path d="M157.68 261h28.78v28.76H157.68zM157.68 379.3h28.78v28.78H157.68zM157.68 497.62h28.78v28.76H157.68zM157.68 615.92h28.78v28.78H157.68zM157.68 734.24h28.78v28.76H157.68zM261 837.54h28.76v28.78H261zM379.3 837.54h28.78v28.78h-28.78zM497.62 837.54h28.76v28.78h-28.76zM615.92 837.54h28.78v28.78h-28.78zM734.24 837.54h28.76v28.78h-28.76zM866.32 615.92v28.78h-28.78v-28.78h28.78zM837.54 734.24h28.78v28.76h-28.78zM837.54 497.62h28.78v28.76h-28.78zM866.32 379.3v28.78h-28.78v-28.78h28.78zM837.54 261h28.78v28.76h-28.78zM763 157.68v28.78h-28.76V157.68H763zM644.7 157.68v28.78h-28.78V157.68h28.78zM526.38 157.68v28.78h-28.76V157.68H526.38zM408.08 157.68v28.78h-28.78V157.68H408.08zM289.76 157.68v28.78H261V157.68H289.76z" fill="#F9C139" p-id="7592"></path><path d="M289.76 172.07v14.39H261v-14.39H289.76zM408.07 172.07v14.39h-28.76v-14.39H408.07zM526.38 172.07v14.39h-28.76v-14.39H526.38zM644.69 172.07v14.39h-28.76v-14.39H644.69zM763 172.07v14.39h-28.76v-14.39H763zM289.76 837.54v14.39H261v-14.39H289.76zM408.07 837.54v14.39h-28.76v-14.39H408.07zM526.38 837.54v14.39h-28.76v-14.39H526.38zM644.69 837.54v14.39h-28.76v-14.39H644.69zM763 837.54v14.39h-28.76v-14.39H763zM172.07 734.24h14.39v28.76h-14.39v-14.34-0.04V734.24zM172.07 615.93h14.39v28.76h-14.39v-14.34-0.04V615.93zM172.07 497.62h14.39v28.76h-14.39v-14.34-0.04V497.62zM172.07 379.31h14.39v28.76h-14.39v-14.34-0.04V379.31zM172.07 261h14.39v28.76h-14.39v-14.34-0.04V261zM837.54 734.24h14.39v28.76h-14.39v-14.34-0.04V734.24zM837.54 615.93h14.39v28.76h-14.39v-14.34-0.04V615.93zM837.54 497.62h14.39v28.76h-14.39v-14.34-0.04V497.62zM837.54 379.31h14.39v28.76h-14.39v-14.34-0.04V379.31zM837.54 261h14.39v28.76h-14.39v-14.34-0.04V261z" opacity=".2" p-id="7593"></path><path d="M206.46 206.46v611.08h611.08v-44.52-0.02-48.74-0.02-517.78H206.46z m559.7 549.7c0 5.52-4.48 10-10 10H267.84c-5.52 0-10-4.48-10-10V267.84c0-5.52 4.48-10 10-10h488.32c5.52 0 10 4.48 10 10v488.32z" fill="#E1E1E5" p-id="7594"></path><path d="M809.54 214.46v595.08H214.46V214.46h595.08M267.84 774.16h488.32c9.926 0 18-8.074 18-18V267.84c0-9.926-8.074-18-18-18H267.84c-9.926 0-18 8.074-18 18v488.32c0 9.926 8.074 18 18 18m549.7-567.7H206.46v611.08h611.08v-44.52-0.02-48.74-0.02-517.78zM267.84 766.16c-5.52 0-10-4.48-10-10V267.84c0-5.52 4.48-10 10-10h488.32c5.52 0 10 4.48 10 10v488.32c0 5.52-4.48 10-10 10H267.84z" opacity=".2" p-id="7595"></path><path d="M277.84 277.84v468.32h468.32V277.84H277.84z m288.34 23.08h35c5.52 0 10 4.48 10 10s-4.48 10-10 10h-35c-5.54 0-10-4.48-10-10s4.46-10 10-10z m105.92 40.96c5.54 0 10 4.48 10 10v320.22c0 5.54-4.46 10-10 10h-320.2c-5.54 0-10-4.46-10-10V351.88c0-5.52 4.46-10 10-10h320.2z m-177.6-40.96h35c5.52 0 10 4.48 10 10s-4.48 10-10 10h-35c-5.54 0-10-4.48-10-10s4.46-10 10-10z m-71.68 0h35c5.52 0 10 4.48 10 10s-4.48 10-10 10h-35c-5.54 0-10-4.48-10-10s4.46-10 10-10z m-71.68 0h35c5.52 0 10 4.48 10 10s-4.48 10-10 10h-35c-5.54 0-10-4.48-10-10s4.46-10 10-10z m-30.22 371.94c0 5.52-4.48 10-10 10s-10-4.48-10-10v-35c0-5.54 4.48-10 10-10s10 4.46 10 10v35z m0-71.68c0 5.52-4.48 10-10 10s-10-4.48-10-10v-35.02c0-5.52 4.48-10 10-10s10 4.48 10 10v35.02z m0-71.68c0 5.52-4.48 10-10 10s-10-4.48-10-10v-35c0-5.54 4.48-10 10-10s10 4.46 10 10v35z m0-71.68c0 5.52-4.48 10-10 10s-10-4.48-10-10v-35c0-5.52 4.48-10 10-10s10 4.48 10 10v35z m0-71.68c0 5.52-4.48 10-10 10s-10-4.48-10-10v-35c0-5.54 4.48-10 10-10s10 4.46 10 10v35z m65.22 336.94h-35c-5.54 0-10-4.48-10-10s4.46-10 10-10h35c5.52 0 10 4.48 10 10s-4.48 10-10 10z m71.68 0h-35c-5.54 0-10-4.48-10-10s4.46-10 10-10h35c5.52 0 10 4.48 10 10s-4.48 10-10 10z m71.68 0h-35c-5.54 0-10-4.48-10-10s4.46-10 10-10h35c5.52 0 10 4.48 10 10s-4.48 10-10 10z m71.68 0h-35c-5.54 0-10-4.48-10-10s4.46-10 10-10h35c5.52 0 10 4.48 10 10s-4.48 10-10 10z m71.68 0h-35c-5.54 0-10-4.48-10-10s4.46-10 10-10h35c5.54 0 10 4.48 10 10s-4.46 10-10 10z m0-402.16h-35c-5.54 0-10-4.48-10-10s4.46-10 10-10h35c5.54 0 10 4.48 10 10s-4.46 10-10 10z m50.22 351.94c0 5.52-4.48 10-10 10s-10-4.48-10-10v-35c0-5.54 4.48-10 10-10s10 4.46 10 10v35z m0-71.68c0 5.52-4.48 10-10 10s-10-4.48-10-10v-35.02c0-5.52 4.48-10 10-10s10 4.48 10 10v35.02z m0-71.68c0 5.52-4.48 10-10 10s-10-4.48-10-10v-35c0-5.54 4.48-10 10-10s10 4.46 10 10v35z m0-71.68c0 5.52-4.48 10-10 10s-10-4.48-10-10v-35c0-5.52 4.48-10 10-10s10 4.48 10 10v35z m0-71.68c0 5.52-4.48 10-10 10s-10-4.48-10-10v-35c0-5.54 4.48-10 10-10s10 4.46 10 10v35z" fill="#3594BF" p-id="7596"></path><path d="M361.9 361.88v300.22h300.2V361.88h-300.2zM494.76 622c0 5.52-4.48 10-10 10h-80.66c-5.54 0-10-4.48-10-10v-80.66c0-5.54 4.46-10 10-10h80.66c5.52 0 10 4.46 10 10V622z m0-139.34c0 5.54-4.48 10-10 10h-80.66c-5.54 0-10-4.46-10-10V402c0-5.52 4.46-10 10-10h80.66c5.52 0 10 4.48 10 10v80.66zM632.74 622c0 5.52-4.48 10-10 10h-80.68c-5.52 0-10-4.48-10-10v-80.66c0-5.54 4.48-10 10-10h80.68c5.52 0 10 4.46 10 10V622z m0-139.34c0 5.54-4.48 10-10 10h-80.68c-5.52 0-10-4.46-10-10V402c0-5.52 4.48-10 10-10h80.68c5.52 0 10 4.48 10 10v80.66z" fill="#E1E1E5" p-id="7597"></path><path d="M656.1 367.88v288.22h-288.2V367.88h288.2m-114.04 130.78h80.68c8.822 0 16-7.178 16-16V402c0-8.822-7.178-16-16-16h-80.68c-8.822 0-16 7.178-16 16v80.66c0 8.822 7.178 16 16 16m-137.96 0h80.66c8.822 0 16-7.178 16-16V402c0-8.822-7.178-16-16-16h-80.66c-8.822 0-16 7.178-16 16v80.66c0 8.822 7.178 16 16 16M542.06 638h80.68c8.822 0 16-7.178 16-16v-80.66c0-8.822-7.178-16-16-16h-80.68c-8.822 0-16 7.178-16 16V622c0 8.822 7.178 16 16 16m-137.96 0h80.66c8.822 0 16-7.178 16-16v-80.66c0-8.822-7.178-16-16-16h-80.66c-8.822 0-16 7.178-16 16V622c0 8.822 7.178 16 16 16m258-276.12h-300.2v300.22h300.2V361.88z m-120.04 130.78c-5.52 0-10-4.46-10-10V402c0-5.52 4.48-10 10-10h80.68c5.52 0 10 4.48 10 10v80.66c0 5.54-4.48 10-10 10h-80.68z m-137.96 0c-5.54 0-10-4.46-10-10V402c0-5.52 4.46-10 10-10h80.66c5.52 0 10 4.48 10 10v80.66c0 5.54-4.48 10-10 10h-80.66zM542.06 632c-5.52 0-10-4.48-10-10v-80.66c0-5.54 4.48-10 10-10h80.68c5.52 0 10 4.46 10 10V622c0 5.52-4.48 10-10 10h-80.68z m-137.96 0c-5.54 0-10-4.48-10-10v-80.66c0-5.54 4.46-10 10-10h80.66c5.52 0 10 4.46 10 10V622c0 5.52-4.48 10-10 10h-80.66z" opacity=".2" p-id="7598"></path><path d="M484.76 392h-80.66c-5.54 0-10 4.48-10 10v80.66c0 5.54 4.46 10 10 10h80.66c5.52 0 10-4.46 10-10V402c0-5.52-4.48-10-10-10z m-10 80.66h-60.66V412h60.66v60.66z" fill="#23130D" p-id="7599"></path><path d="M414.1 412h60.66v60.66h-60.66z" fill="#F9C139" p-id="7600"></path><path d="M484.76 531.34h-80.66c-5.54 0-10 4.46-10 10V622c0 5.52 4.46 10 10 10h80.66c5.52 0 10-4.48 10-10v-80.66c0-5.54-4.48-10-10-10z m-10 80.66h-60.66v-60.66h60.66V612z" fill="#23130D" p-id="7601"></path><path d="M414.1 551.34h60.66V612h-60.66z" fill="#F9C139" p-id="7602"></path><path d="M622.74 392h-80.68c-5.52 0-10 4.48-10 10v80.66c0 5.54 4.48 10 10 10h80.68c5.52 0 10-4.46 10-10V402c0-5.52-4.48-10-10-10z m-10 80.66h-60.68V412h60.68v60.66z" fill="#23130D" p-id="7603"></path><path d="M552.06 412h60.68v60.66h-60.68z" fill="#F9C139" p-id="7604"></path><path d="M622.74 531.34h-80.68c-5.52 0-10 4.46-10 10V622c0 5.52 4.48 10 10 10h80.68c5.52 0 10-4.48 10-10v-80.66c0-5.54-4.48-10-10-10z m-10 80.66h-60.68v-60.66h60.68V612z" fill="#23130D" p-id="7605"></path><path d="M552.06 551.34h60.68V612h-60.68z" fill="#F9C139" p-id="7606"></path><path d="M468.76 418v48.66h-48.66V418h48.66m6-6h-60.66v60.66h60.66V412zM468.76 557.34V606h-48.66v-48.66h48.66m6-6h-60.66V612h60.66v-60.66zM606.74 418v48.66h-48.68V418h48.68m6-6h-60.68v60.66h60.68V412zM606.74 557.34V606h-48.68v-48.66h48.68m6-6h-60.68V612h60.68v-60.66z" opacity=".2" p-id="7607"></path><path d="M457.06 472.66h-13.96l-29-29v-13.96zM473.22 472.66h-10.72l-48.4-48.4v-10.72zM474.76 445.16v17.84l-51-51h17.84z" fill="#FFFFFF" opacity=".4" p-id="7608"></path><path d="M595.03 472.66h-13.96l-29-29v-13.96zM611.19 472.66h-10.72l-48.4-48.4v-10.72zM612.73 445.16v17.84l-51-51h17.84z" fill="#FFFFFF" opacity=".4" p-id="7609"></path><path d="M457.06 612h-13.96l-29-29v-13.96zM473.22 612h-10.72l-48.4-48.4v-10.72zM474.76 584.5v17.84l-51-51h17.84z" fill="#FFFFFF" opacity=".4" p-id="7610"></path><path d="M595.03 612h-13.96l-29-29v-13.96zM611.19 612h-10.72l-48.4-48.4v-10.72zM612.73 584.5v17.84l-51-51h17.84z" fill="#FFFFFF" opacity=".4" p-id="7611"></path></svg>