<?xml version="1.0" standalone="no"?><!DOCTYPE svg PUBLIC "-//W3C//DTD SVG 1.1//EN" "http://www.w3.org/Graphics/SVG/1.1/DTD/svg11.dtd"><svg t="1710332039464" class="icon" viewBox="0 0 1024 1024" version="1.1" xmlns="http://www.w3.org/2000/svg" p-id="2733" xmlns:xlink="http://www.w3.org/1999/xlink" width="200" height="200"><path d="M0.000256 844.8c0-28.288 22.8352-51.2 51.1232-51.2h921.7536c28.2368 0 51.1232 22.7328 51.1232 51.2 0 28.288-22.8352 51.2-51.1232 51.2H51.123456A51.0464 51.0464 0 0 1 0.000256 844.8z m0-332.8c0-28.288 22.8352-51.2 51.1232-51.2h921.7536c28.2368 0 51.1232 22.7328 51.1232 51.2 0 28.288-22.8352 51.2-51.1232 51.2H51.123456A51.0464 51.0464 0 0 1 0.000256 512zM0.000256 179.2c0-28.288 22.8352-51.2 51.1232-51.2h921.7536C1001.113856 128 1024.000256 150.7328 1024.000256 179.2c0 28.288-22.8352 51.2-51.1232 51.2H51.123456A51.0464 51.0464 0 0 1 0.000256 179.2z" fill="#9099B0" p-id="2734"></path></svg>